# xmcd
#
# Track frame offsets: 
#        150
#        18164
#        34210
#        49042
#        61580
#        81883
#        105630
#        122859
#        141173
#        156942
#        175005
#        212045
#
# Disc length: 3152 seconds
#
# Revision: 0
# Processed by: cddbd v1.5.2PL0 Copyright (c) Steve Scherf et al.
# Submitted via: ExactAudioCopy v0.99pb4
#
DISCID=9a0c4e0c
DTITLE=Beat Assaillant - Hard Twelve
DYEAR=2005
DGENRE=Hip-Hop
TTITLE0=Hard Twelve - The Ante
TTITLE1=B 4 Prez !
TTITLE2=I Swear 2 U
TTITLE3=The Most Real
TTITLE4=I Like Cash
TTITLE5=Chronic Break - Starring Tash (Tha Liks)
TTITLE6=Love's Gone Wrong
TTITLE7=Strip Club
TTITLE8=Break Up Song
TTITLE9=Technology
TTITLE10=The Secret Weapon
TTITLE11=Hard Twelve - The Payout
EXTD=
EXTT0=
EXTT1=
EXTT2=
EXTT3=
EXTT4=
EXTT5=
EXTT6=
EXTT7=
EXTT8=
EXTT9=
EXTT10=
EXTT11=
PLAYORDER=
